<svg xmlns="http://www.w3.org/2000/svg" xmlns:xlink="http://www.w3.org/1999/xlink" viewBox="0 0 77 52.85" overflow="visible"><path d="M 77 4.326 C 77 6.713 75.061 8.649 72.669 8.649 C 71.519 8.651 70.416 8.196 69.602 7.385 C 68.788 6.574 68.331 5.474 68.331 4.326 C 68.33 3.178 68.787 2.078 69.6 1.266 C 70.413 0.455 71.516 -0.001 72.666 0 C 73.815 -0.001 74.917 0.454 75.73 1.265 C 76.543 2.076 77 3.176 77 4.323 Z M 53.095 46.632 C 51.11 46.661 49.199 45.887 47.795 44.486 C 46.392 43.085 45.616 41.177 45.645 39.197 L 39.142 39.197 C 39.142 47.039 45.238 52.85 52.957 52.85 C 60.676 52.85 66.907 46.904 66.907 39.197 L 60.541 39.197 C 60.403 43.523 57.153 46.632 53.092 46.632 Z M 69.483 37.576 L 75.848 37.576 L 75.848 11.624 L 69.483 11.624 Z M 0 37.58 L 6.365 37.58 L 6.365 0.81 L 0 0.81 Z M 22.207 10.813 C 14.488 10.813 8.257 16.759 8.257 24.467 C 8.257 32.174 14.488 38.12 22.207 38.12 C 29.926 38.12 36.157 32.174 36.157 24.467 C 36.157 16.759 29.926 10.813 22.207 10.813 Z M 22.207 32.037 C 18.007 32.037 14.757 28.793 14.757 24.467 C 14.728 22.486 15.504 20.579 16.907 19.178 C 18.311 17.777 20.222 17.003 22.207 17.032 C 24.191 17.003 26.103 17.777 27.506 19.178 C 28.91 20.579 29.685 22.486 29.656 24.467 C 29.656 28.659 26.268 32.037 22.207 32.037 Z M 53.095 10.813 C 45.376 10.813 39.145 16.759 39.145 24.467 C 39.145 32.174 45.376 38.12 53.095 38.12 C 60.813 38.12 67.044 32.174 67.044 24.467 C 67.044 16.759 60.813 10.813 53.095 10.813 Z M 53.095 32.037 C 48.895 32.037 45.645 28.793 45.645 24.467 C 45.616 22.486 46.392 20.579 47.795 19.178 C 49.199 17.777 51.11 17.003 53.095 17.032 C 55.079 17.003 56.991 17.777 58.394 19.178 C 59.798 20.579 60.573 22.486 60.544 24.467 C 60.544 28.659 57.156 32.037 53.095 32.037 Z" fill="rgb(0,0,0)"></path></svg>
