<svg width="2402" height="640" viewBox="0 0 2402 640" fill="none" xmlns="http://www.w3.org/2000/svg">
<rect x="8.20233" y="8.20233" width="623.595" height="623.595" rx="188.654" fill="url(#paint0_linear_111_32)"/>
<rect x="8.20233" y="8.20233" width="623.595" height="623.595" rx="188.654" stroke="url(#paint1_linear_111_32)" stroke-width="16.4047"/>
<g filter="url(#filter0_d_111_32)">
<path fill-rule="evenodd" clip-rule="evenodd" d="M148.383 506.463L191.311 130.656C192.043 124.244 197.47 119.402 203.924 119.402H402.155C508.306 119.402 520.041 275.928 437.569 342.759L414.385 355.108L479.179 504.056C481.782 512.244 475.672 520.599 467.081 520.599C439.544 520.599 410.98 518.373 389.009 501.772C359.794 479.698 328.889 438.457 329.999 374.274L333.113 374.954L354.592 436.106C361.397 407.352 369.041 343.175 345.173 316.492C346.966 300.469 348.534 276.502 348.005 252.704C348.005 252.704 348.088 247.484 348.005 244.141C347.763 234.5 345.602 219.564 345.602 219.564C343.131 201.399 338.579 186.05 330.861 178.223C321.662 184.241 313.968 198.281 307.712 215.512L302.032 234.269L298.356 247.394C292.806 270.543 289.27 294.299 287.635 310.339C258.664 331.371 252.564 395.714 253.136 425.256L287.059 370.029L288.001 370.027C284.069 410.632 280.703 472.513 212.964 509.396C197.171 517.995 178.978 520.599 160.996 520.599C153.414 520.599 147.523 513.996 148.383 506.463Z" fill="white"/>
</g>
<path d="M848.693 465.5V174.591H957.784C980.133 174.591 998.883 178.473 1014.03 186.239C1029.28 194.004 1040.79 204.894 1048.55 218.909C1056.41 232.83 1060.34 249.07 1060.34 267.631C1060.34 286.286 1056.36 302.479 1048.41 316.21C1040.55 329.847 1028.95 340.405 1013.61 347.886C998.267 355.273 979.422 358.966 957.074 358.966H879.375V315.216H949.972C963.04 315.216 973.741 313.417 982.074 309.818C990.407 306.125 996.563 300.775 1000.54 293.767C1004.61 286.665 1006.65 277.953 1006.65 267.631C1006.65 257.309 1004.61 248.502 1000.54 241.21C996.468 233.824 990.265 228.237 981.932 224.449C973.598 220.566 962.85 218.625 949.688 218.625H901.392V465.5H848.693ZM998.977 333.682L1070.99 465.5H1012.19L941.449 333.682H998.977ZM1197.64 469.761C1175.77 469.761 1156.88 465.216 1140.97 456.125C1125.15 446.939 1112.98 433.966 1104.46 417.205C1095.94 400.348 1091.68 380.509 1091.68 357.688C1091.68 335.244 1095.94 315.547 1104.46 298.597C1113.08 281.551 1125.1 268.294 1140.54 258.824C1155.98 249.259 1174.11 244.477 1194.94 244.477C1208.39 244.477 1221.08 246.655 1233.01 251.011C1245.04 255.273 1255.64 261.902 1264.83 270.898C1274.11 279.894 1281.4 291.352 1286.71 305.273C1292.01 319.098 1294.66 335.576 1294.66 354.705V370.472H1115.82V335.812H1245.37C1245.28 325.964 1243.14 317.205 1238.98 309.534C1234.81 301.769 1228.99 295.661 1221.51 291.21C1214.12 286.759 1205.5 284.534 1195.65 284.534C1185.14 284.534 1175.91 287.091 1167.96 292.205C1160 297.223 1153.8 303.852 1149.35 312.091C1144.99 320.235 1142.77 329.184 1142.67 338.938V369.193C1142.67 381.883 1144.99 392.773 1149.63 401.864C1154.27 410.86 1160.76 417.773 1169.09 422.602C1177.42 427.337 1187.18 429.705 1198.35 429.705C1205.83 429.705 1212.6 428.663 1218.67 426.58C1224.73 424.402 1229.98 421.229 1234.43 417.062C1238.88 412.896 1242.24 407.735 1244.52 401.58L1292.53 406.977C1289.5 419.667 1283.72 430.746 1275.2 440.216C1266.77 449.591 1255.98 456.883 1242.81 462.091C1229.65 467.205 1214.59 469.761 1197.64 469.761ZM1398.55 469.903C1384.72 469.903 1372.27 467.441 1361.19 462.517C1350.2 457.498 1341.49 450.112 1335.05 440.358C1328.71 430.604 1325.53 418.578 1325.53 404.278C1325.53 391.968 1327.81 381.788 1332.35 373.739C1336.9 365.689 1343.1 359.25 1350.96 354.42C1358.82 349.591 1367.67 345.945 1377.52 343.483C1387.47 340.926 1397.74 339.08 1408.35 337.943C1421.13 336.617 1431.5 335.434 1439.45 334.392C1447.41 333.256 1453.19 331.551 1456.78 329.278C1460.48 326.911 1462.32 323.265 1462.32 318.341V317.489C1462.32 306.788 1459.15 298.502 1452.81 292.631C1446.46 286.759 1437.32 283.824 1425.39 283.824C1412.8 283.824 1402.81 286.57 1395.42 292.062C1388.13 297.555 1383.2 304.042 1380.65 311.523L1332.64 304.705C1336.42 291.447 1342.67 280.367 1351.39 271.466C1360.1 262.47 1370.75 255.746 1383.35 251.295C1395.94 246.75 1409.86 244.477 1425.11 244.477C1435.62 244.477 1446.08 245.708 1456.5 248.17C1466.92 250.633 1476.43 254.705 1485.05 260.386C1493.67 265.973 1500.58 273.597 1505.79 283.256C1511.09 292.915 1513.74 304.989 1513.74 319.477V465.5H1464.31V435.528H1462.61C1459.48 441.589 1455.08 447.271 1449.4 452.574C1443.81 457.782 1436.76 461.996 1428.23 465.216C1419.8 468.341 1409.91 469.903 1398.55 469.903ZM1411.9 432.119C1422.22 432.119 1431.17 430.083 1438.74 426.011C1446.32 421.845 1452.14 416.352 1456.22 409.534C1460.38 402.716 1462.47 395.282 1462.47 387.233V361.523C1460.86 362.848 1458.11 364.08 1454.23 365.216C1450.44 366.352 1446.18 367.347 1441.44 368.199C1436.71 369.051 1432.02 369.809 1427.38 370.472C1422.74 371.134 1418.72 371.703 1415.31 372.176C1407.64 373.218 1400.77 374.922 1394.71 377.29C1388.65 379.657 1383.87 382.972 1380.36 387.233C1376.86 391.4 1375.11 396.797 1375.11 403.426C1375.11 412.896 1378.56 420.045 1385.48 424.875C1392.39 429.705 1401.2 432.119 1411.9 432.119ZM1658.22 469.761C1636.44 469.761 1617.74 464.979 1602.11 455.415C1586.58 445.85 1574.6 432.64 1566.17 415.784C1557.84 398.833 1553.67 379.326 1553.67 357.261C1553.67 335.102 1557.93 315.547 1566.46 298.597C1574.98 281.551 1587.01 268.294 1602.54 258.824C1618.16 249.259 1636.63 244.477 1657.93 244.477C1675.64 244.477 1691.32 247.744 1704.95 254.278C1718.68 260.718 1729.62 269.856 1737.76 281.693C1745.91 293.436 1750.55 307.167 1751.68 322.886H1702.54C1700.55 312.375 1695.81 303.616 1688.33 296.608C1680.95 289.506 1671.05 285.955 1658.65 285.955C1648.13 285.955 1638.9 288.795 1630.95 294.477C1622.99 300.064 1616.79 308.114 1612.34 318.625C1607.98 329.136 1605.8 341.731 1605.8 356.409C1605.8 371.277 1607.98 384.061 1612.34 394.761C1616.69 405.367 1622.8 413.559 1630.66 419.335C1638.62 425.017 1647.94 427.858 1658.65 427.858C1666.22 427.858 1672.99 426.437 1678.96 423.597C1685.02 420.661 1690.08 416.447 1694.16 410.955C1698.23 405.462 1701.02 398.786 1702.54 390.926H1751.68C1750.45 406.362 1745.91 420.045 1738.05 431.977C1730.19 443.814 1719.49 453.095 1705.95 459.818C1692.4 466.447 1676.5 469.761 1658.22 469.761ZM1842.93 337.659V465.5H1791.51V174.591H1841.79V284.392H1844.35C1849.46 272.081 1857.37 262.375 1868.07 255.273C1878.87 248.076 1892.6 244.477 1909.26 244.477C1924.42 244.477 1937.63 247.65 1948.89 253.994C1960.16 260.339 1968.88 269.619 1975.03 281.835C1981.28 294.051 1984.41 308.966 1984.41 326.58V465.5H1932.99V334.534C1932.99 319.856 1929.2 308.445 1921.62 300.301C1914.14 292.062 1903.63 287.943 1890.09 287.943C1881 287.943 1872.85 289.932 1865.66 293.909C1858.55 297.792 1852.97 303.426 1848.89 310.812C1844.92 318.199 1842.93 327.148 1842.93 337.659ZM2131.01 469.761C2109.14 469.761 2090.24 465.216 2074.34 456.125C2058.52 446.939 2046.35 433.966 2037.83 417.205C2029.31 400.348 2025.05 380.509 2025.05 357.688C2025.05 335.244 2029.31 315.547 2037.83 298.597C2046.45 281.551 2058.47 268.294 2073.91 258.824C2089.34 249.259 2107.48 244.477 2128.31 244.477C2141.76 244.477 2154.45 246.655 2166.38 251.011C2178.41 255.273 2189.01 261.902 2198.2 270.898C2207.48 279.894 2214.77 291.352 2220.07 305.273C2225.38 319.098 2228.03 335.576 2228.03 354.705V370.472H2049.19V335.812H2178.74C2178.64 325.964 2176.51 317.205 2172.35 309.534C2168.18 301.769 2162.36 295.661 2154.88 291.21C2147.49 286.759 2138.87 284.534 2129.02 284.534C2118.51 284.534 2109.28 287.091 2101.32 292.205C2093.37 297.223 2087.17 303.852 2082.72 312.091C2078.36 320.235 2076.13 329.184 2076.04 338.938V369.193C2076.04 381.883 2078.36 392.773 2083 401.864C2087.64 410.86 2094.13 417.773 2102.46 422.602C2110.79 427.337 2120.55 429.705 2131.72 429.705C2139.2 429.705 2145.97 428.663 2152.03 426.58C2158.09 424.402 2163.35 421.229 2167.8 417.062C2172.25 412.896 2175.61 407.735 2177.89 401.58L2225.9 406.977C2222.87 419.667 2217.09 430.746 2208.57 440.216C2200.14 449.591 2189.34 456.883 2176.18 462.091C2163.02 467.205 2147.96 469.761 2131.01 469.761ZM2269.13 465.5V247.318H2318.99V283.682H2321.26C2325.24 271.087 2332.06 261.381 2341.72 254.562C2351.47 247.65 2362.6 244.193 2375.1 244.193C2377.94 244.193 2381.11 244.335 2384.61 244.619C2388.21 244.809 2391.19 245.14 2393.56 245.614V292.915C2391.38 292.157 2387.93 291.494 2383.19 290.926C2378.55 290.263 2374.05 289.932 2369.7 289.932C2360.32 289.932 2351.89 291.968 2344.41 296.04C2337.03 300.017 2331.2 305.557 2326.94 312.659C2322.68 319.761 2320.55 327.953 2320.55 337.233V465.5H2269.13Z" fill="white"/>
<defs>
<filter id="filter0_d_111_32" x="82.6808" y="86.5922" width="474.639" height="532.434" filterUnits="userSpaceOnUse" color-interpolation-filters="sRGB">
<feFlood flood-opacity="0" result="BackgroundImageFix"/>
<feColorMatrix in="SourceAlpha" type="matrix" values="0 0 0 0 0 0 0 0 0 0 0 0 0 0 0 0 0 0 127 0" result="hardAlpha"/>
<feOffset dy="32.8093"/>
<feGaussianBlur stdDeviation="32.8093"/>
<feComposite in2="hardAlpha" operator="out"/>
<feColorMatrix type="matrix" values="0 0 0 0 0 0 0 0 0 0 0 0 0 0 0 0 0 0 0.1 0"/>
<feBlend mode="normal" in2="BackgroundImageFix" result="effect1_dropShadow_111_32"/>
<feBlend mode="normal" in="SourceGraphic" in2="effect1_dropShadow_111_32" result="shape"/>
</filter>
<linearGradient id="paint0_linear_111_32" x1="320" y1="0" x2="320" y2="640" gradientUnits="userSpaceOnUse">
<stop stop-color="#04C8F9"/>
<stop offset="1" stop-color="#335CFF"/>
</linearGradient>
<linearGradient id="paint1_linear_111_32" x1="320" y1="0" x2="320" y2="640" gradientUnits="userSpaceOnUse">
<stop stop-color="white" stop-opacity="0.12"/>
<stop offset="1" stop-color="white" stop-opacity="0"/>
</linearGradient>
</defs>
</svg>
